2014001_C1_04_grf
version=1
nRows=34
nColumns=19
inDegrees=no
endheader
time	ground_force_1_vx	ground_force_1_vy	ground_force_1_vz	ground_force_1_px	ground_force_1_py	ground_force_1_pz	ground_force_1_mx	ground_force_1_my	ground_force_1_mz	ground_force_2_vx	ground_force_2_vy	ground_force_2_vz	ground_force_2_px	ground_force_2_py	ground_force_2_pz	ground_force_2_mx	ground_force_2_my	ground_force_2_mz
      2.84500000	      0.00000000	      0.00000000	      0.00000000	      0.00000000	      0.00000000	      0.00000000	      0.00000000	      0.00000000	      0.00000000	     12.63437290	    641.11027494	    -15.11942735	      0.18440968	     -0.00200000	      0.64253232	      0.00000000	     -1.06889508	     -0.00000000
      2.84600000	      0.00000000	      0.00000000	      0.00000000	      0.00000000	      0.00000000	      0.00000000	      0.00000000	      0.00000000	      0.00000000	     12.60102689	    641.43078774	    -15.05943257	      0.18441336	     -0.00200000	      0.64253410	      0.00000000	     -1.07203842	      0.00000000
      2.84700000	      0.00000000	      0.00000000	      0.00000000	      0.00000000	      0.00000000	      0.00000000	      0.00000000	      0.00000000	      0.00000000	     12.56847829	    641.74913615	    -15.00188643	      0.18441668	     -0.00200000	      0.64253713	      0.00000000	     -1.07526167	      0.00000000
      2.84800000	      0.00000000	      0.00000000	      0.00000000	      0.00000000	      0.00000000	      0.00000000	      0.00000000	      0.00000000	      0.00000000	     12.53660470	    642.06550270	    -14.94628303	      0.18441971	     -0.00200000	      0.64254116	      0.00000000	     -1.07854330	      0.00000000
      2.84900000	      0.00000000	      0.00000000	      0.00000000	      0.00000000	      0.00000000	      0.00000000	      0.00000000	      0.00000000	      0.00000000	     12.50562128	    642.37915725	    -14.89307806	      0.18442241	     -0.00200000	      0.64254643	      0.00000000	     -1.08189053	      0.00000000
      2.85000000	      0.00000000	      0.00000000	      0.00000000	      0.00000000	      0.00000000	      0.00000000	      0.00000000	      0.00000000	      0.00000000	     12.47537769	    642.69041270	    -14.84175585	      0.18442484	     -0.00200000	      0.64255267	      0.00000000	     -1.08528577	      0.00000000
      2.85100000	      0.00000000	      0.00000000	      0.00000000	      0.00000000	      0.00000000	      0.00000000	      0.00000000	      0.00000000	      0.00000000	     12.44608965	    642.99851283	    -14.79273168	      0.18442696	     -0.00200000	      0.64256012	      0.00000000	     -1.08873594	      0.00000000
      2.85200000	      0.00000000	      0.00000000	      0.00000000	      0.00000000	      0.00000000	      0.00000000	      0.00000000	      0.00000000	      0.00000000	     12.41758615	    643.30395311	    -14.74549379	      0.18442887	     -0.00200000	      0.64256856	      0.00000000	     -1.09222619	      0.00000000
      2.85300000	      0.00000000	      0.00000000	      0.00000000	      0.00000000	      0.00000000	      0.00000000	      0.00000000	      0.00000000	      0.00000000	     12.39008680	    643.60584691	    -14.70041247	      0.18443052	     -0.00200000	      0.64257818	      0.00000000	     -1.09576274	     -0.00000000
      2.85400000	      0.00000000	      0.00000000	      0.00000000	      0.00000000	      0.00000000	      0.00000000	      0.00000000	      0.00000000	      0.00000000	     12.36340217	    643.90482008	    -14.65698704	      0.18443197	     -0.00200000	      0.64258876	      0.00000000	     -1.09933546	      0.00000000
      2.85500000	      0.00000000	      0.00000000	      0.00000000	      0.00000000	      0.00000000	      0.00000000	      0.00000000	      0.00000000	      0.00000000	     12.33774181	    644.19998601	    -14.61553695	      0.18443320	     -0.00200000	      0.64260051	      0.00000000	     -1.10295066	     -0.00000000
      2.85600000	      0.00000000	      0.00000000	      0.00000000	      0.00000000	      0.00000000	      0.00000000	      0.00000000	      0.00000000	      0.00000000	     12.31289953	    644.49202269	    -14.57558498	      0.18443426	     -0.00200000	      0.64261318	      0.00000000	     -1.10659824	     -0.00000000
      2.85700000	      0.00000000	      0.00000000	      0.00000000	      0.00000000	      0.00000000	      0.00000000	      0.00000000	      0.00000000	      0.00000000	     12.28906866	    644.78006959	    -14.53738343	      0.18443515	     -0.00200000	      0.64262698	      0.00000000	     -1.11028206	      0.00000000
      2.85800000	      0.00000000	      0.00000000	      0.00000000	      0.00000000	      0.00000000	      0.00000000	      0.00000000	      0.00000000	      0.00000000	     12.26602904	    645.06483078	    -14.50047661	      0.18443591	     -0.00200000	      0.64264164	      0.00000000	     -1.11399114	      0.00000000
      2.85900000	      0.00000000	      0.00000000	      0.00000000	      0.00000000	      0.00000000	      0.00000000	      0.00000000	      0.00000000	      0.00000000	     12.24394608	    645.34547180	    -14.46505552	      0.18443656	     -0.00200000	      0.64265736	      0.00000000	     -1.11772643	      0.00000000
      2.86000000	      0.00000000	      0.00000000	      0.00000000	      0.00000000	      0.00000000	      0.00000000	      0.00000000	      0.00000000	      0.00000000	     12.22259626	    645.62272280	    -14.43071663	      0.18443715	     -0.00200000	      0.64267391	      0.00000000	     -1.12147641	      0.00000000
      2.86100000	      0.00000000	      0.00000000	      0.00000000	      0.00000000	      0.00000000	      0.00000000	      0.00000000	      0.00000000	      0.00000000	     12.20211927	    645.89577541	    -14.39758902	      0.18443773	     -0.00200000	      0.64269145	      0.00000000	     -1.12523494	      0.00000000
      2.86200000	      0.00000000	      0.00000000	      0.00000000	      0.00000000	      0.00000000	      0.00000000	      0.00000000	      0.00000000	      0.00000000	     12.18230166	    646.16543800	    -14.36532065	      0.18443833	     -0.00200000	      0.64270977	      0.00000000	     -1.12899123	      0.00000000
      2.86300000	      0.00000000	      0.00000000	      0.00000000	      0.00000000	      0.00000000	      0.00000000	      0.00000000	      0.00000000	      0.00000000	     12.16325685	    646.43087611	    -14.33397606	      0.18443899	     -0.00200000	      0.64272898	      0.00000000	     -1.13273463	      0.00000000
      2.86400000	      0.00000000	      0.00000000	      0.00000000	      0.00000000	      0.00000000	      0.00000000	      0.00000000	      0.00000000	      0.00000000	     12.14479096	    646.69292420	    -14.30325210	      0.18443974	     -0.00200000	      0.64274889	      0.00000000	     -1.13645970	      0.00000000
      2.86500000	      0.00000000	      0.00000000	      0.00000000	      0.00000000	      0.00000000	      0.00000000	      0.00000000	      0.00000000	      0.00000000	     12.12699395	    646.95074782	    -14.27314682	      0.18444064	     -0.00200000	      0.64276960	      0.00000000	     -1.14015338	     -0.00000000
      2.86600000	      0.00000000	      0.00000000	      0.00000000	      0.00000000	      0.00000000	      0.00000000	      0.00000000	      0.00000000	      0.00000000	     12.10968085	    647.20512927	    -14.24341183	      0.18444166	     -0.00200000	      0.64279090	      0.00000000	     -1.14381613	      0.00000000
      2.86700000	      0.00000000	      0.00000000	      0.00000000	      0.00000000	      0.00000000	      0.00000000	      0.00000000	      0.00000000	      0.00000000	     12.09290028	    647.45523408	    -14.21397477	      0.18444290	     -0.00200000	      0.64281288	      0.00000000	     -1.14743350	      0.00000000
      2.86800000	      0.00000000	      0.00000000	      0.00000000	      0.00000000	      0.00000000	      0.00000000	      0.00000000	      0.00000000	      0.00000000	     12.07648069	    647.70184457	    -14.18463811	      0.18444433	     -0.00200000	      0.64283533	      0.00000000	     -1.15101048	      0.00000000
      2.86900000	      0.00000000	      0.00000000	      0.00000000	      0.00000000	      0.00000000	      0.00000000	      0.00000000	      0.00000000	      0.00000000	     12.06042767	    647.94399589	    -14.15525451	      0.18444604	     -0.00200000	      0.64285827	      0.00000000	     -1.15453077	      0.00000000
      2.87000000	      0.00000000	      0.00000000	      0.00000000	      0.00000000	      0.00000000	      0.00000000	      0.00000000	      0.00000000	      0.00000000	     12.04459928	    648.18249643	    -14.12568968	      0.18444799	     -0.00200000	      0.64288152	      0.00000000	     -1.15800081	      0.00000000
      2.87100000	      0.00000000	      0.00000000	      0.00000000	      0.00000000	      0.00000000	      0.00000000	      0.00000000	      0.00000000	      0.00000000	     12.02896368	    648.41630310	    -14.09571739	      0.18445029	     -0.00200000	      0.64290505	      0.00000000	     -1.16140142	      0.00000000
      2.87200000	      0.00000000	      0.00000000	      0.00000000	      0.00000000	      0.00000000	      0.00000000	      0.00000000	      0.00000000	      0.00000000	     12.01341413	    648.64619821	    -14.06527832	      0.18445288	     -0.00200000	      0.64292867	      0.00000000	     -1.16474093	      0.00000000
      2.87300000	      0.00000000	      0.00000000	      0.00000000	      0.00000000	      0.00000000	      0.00000000	      0.00000000	      0.00000000	      0.00000000	     11.99789084	    648.87126908	    -14.03408693	      0.18445588	     -0.00200000	      0.64295235	      0.00000000	     -1.16799712	     -0.00000000
      2.87400000	      0.00000000	      0.00000000	      0.00000000	      0.00000000	      0.00000000	      0.00000000	      0.00000000	      0.00000000	      0.00000000	     11.98232844	    649.09237623	    -14.00216017	      0.18445923	     -0.00200000	      0.64297598	      0.00000000	     -1.17118032	      0.00000000
      2.87500000	      0.00000000	      0.00000000	      0.00000000	      0.00000000	      0.00000000	      0.00000000	      0.00000000	      0.00000000	      0.00000000	     11.96664143	    649.30855483	    -13.96914339	      0.18446304	     -0.00200000	      0.64299949	      0.00000000	     -1.17426596	     -0.00000000
      2.87600000	      0.00000000	      0.00000000	      0.00000000	      0.00000000	      0.00000000	      0.00000000	      0.00000000	      0.00000000	      0.00000000	     11.95079572	    649.52082187	    -13.93512394	      0.18446724	     -0.00200000	      0.64302284	      0.00000000	     -1.17726757	      0.00000000
      2.87700000	      0.00000000	      0.00000000	      0.00000000	      0.00000000	      0.00000000	      0.00000000	      0.00000000	      0.00000000	      0.00000000	     11.93467285	    649.72810820	    -13.89969373	      0.18447194	     -0.00200000	      0.64304587	      0.00000000	     -1.18015598	     -0.00000000
      2.87800000	      0.00000000	      0.00000000	      0.00000000	      0.00000000	      0.00000000	      0.00000000	      0.00000000	      0.00000000	      0.00000000	     11.91826612	    649.93148297	    -13.86301573	      0.18447705	     -0.00200000	      0.64306861	      0.00000000	     -1.18294619	      0.00000000
